{"title":"Die 2010 DvDRip x264 Feel-Free","uid":6100508,"size":1100808570,"categoryP":"video","categoryS":"movies","magnet":"?xt=urn:btih:13beebad33f7753483a1df6326dc86824eaa7af6&amp;dn=Die+2010+DvDRip+x264+Feel-Free&amp;tr=udp%3A%2F%2Ftracker.openbittorrent.com%3A80&amp;tr=udp%3A%2F%2Fopen.demonii.com%3A1337&amp;tr=udp%3A%2F%2Ftracker.coppersurfer.tk%3A6969&amp;tr=udp%3A%2F%2Fexodus.desync.com%3A6969","seeders":0,"leechers":0,"uploader":"neon","files":9,"time":1294947042,"description":"Six people, each of them is on the road to self-destruction. They wake up in cells in a surreal facility, without knowing how they got there or why. Are they in denial? Are they crazy? What happened? As they try to figure things out, a mysterious man forces the six abductees to participate in a disturbing experiment called the Trials. During the experiment, the unwilling participants will come to face disturbing truths about themselves and decide each others and fate in a game of dice. As the storyline unfolds, we discover that something greater connects them all.\n\nGenre:Thriller\nLanguage:English\n &lt;a href=&quot; http://www.imdb.com/title/tt1465478/&quot; rel=&quot;nofollow&quot; target=&quot;_NEW&quot;&gt; http://www.imdb.com/title/tt1465478/&lt;/a&gt;\nSource:DVD\n\n\nFormat : Matroska\nFile size : 1.02 GiB\nDuration : 1h 27mn\nOverall bit rate : 1 672 Kbps\n\nVideo\nFormat settings, CABAC : Yes\nFormat settings, ReFrames : 4 frames\nCodec ID : V_MPEG4/ISO/AVC\nDuration : 1h 27mn\nBit rate : 1 200 Kbps\nWidth : 720 pixels\nHeight : 304 pixels\nDisplay aspect ratio : 2.35:1\nFrame rate mode : Variable\nFrame rate : 25.000 fps\nColor space : YUV\nChroma subsampling : 4:2:0\nBit depth : 8 bits\nScan type : Progressive\nBits/(Pixel*Frame) : 0.219\nStream size : 747 MiB (71%)\nWriting library : x264\n\nAudio\nID : 2\nFormat : AC-3\nFormat/Info : Audio Coding 3\nMode extension : CM (complete main)\nCodec ID : A_AC3\nDuration : 1h 27mn\nBit rate mode : Constant\nBit rate : 448 Kbps\nChannel(s) : 6 channels\nChannel positions : Front: L C R, Side: L R, LFE\nSampling rate : 48.0 KHz\nBit depth : 16 bits\nVideo delay : -1mn 5s\nStream size : 281 MiB (27%)\nLanguage : English\n","torrent":{"xt":"urn:btih:13beebad33f7753483a1df6326dc86824eaa7af6","amp;dn":"Die+2010+DvDRip+x264+Feel-Free","amp;tr":["udp%3A%2F%2Ftracker.openbittorrent.com%3A80","udp%3A%2F%2Fopen.demonii.com%3A1337","udp%3A%2F%2Ftracker.coppersurfer.tk%3A6969","udp%3A%2F%2Fexodus.desync.com%3A6969"],"infoHash":"13beebad33f7753483a1df6326dc86824eaa7af6","infoHashBuffer":{"type":"Buffer","data":[19,190,235,173,51,247,117,52,131,161,223,99,38,220,134,130,78,170,122,246]},"announce":[],"urlList":[]}}